<?xml version="1.0" encoding="UTF-8" standalone="no"?>
<svg
   height="40"
   id="svgroot"
   version="1.1"
   viewBox="0 0 40 40"
   width="40"
   sodipodi:docname="smile.svg"
   inkscape:version="1.1.1 (3bf5ae0d25, 2021-09-20)"
   xmlns:inkscape="http://www.inkscape.org/namespaces/inkscape"
   xmlns:sodipodi="http://sodipodi.sourceforge.net/DTD/sodipodi-0.dtd"
   xmlns="http://www.w3.org/2000/svg"
   xmlns:svg="http://www.w3.org/2000/svg">
  <defs
     id="defs12" />
  <sodipodi:namedview
     id="namedview10"
     pagecolor="#ffffff"
     bordercolor="#666666"
     borderopacity="1.0"
     inkscape:pageshadow="2"
     inkscape:pageopacity="0.0"
     inkscape:pagecheckerboard="0"
     showgrid="false"
     inkscape:zoom="9.3125"
     inkscape:cx="26.684564"
     inkscape:cy="33.020134"
     inkscape:window-width="1680"
     inkscape:window-height="987"
     inkscape:window-x="-8"
     inkscape:window-y="-8"
     inkscape:window-maximized="1"
     inkscape:current-layer="svgroot" />
  <g
     id="mainGroup">
    <path
       d="M 1.000000 -0.500000 C 2.000000,-0.500000 20.000000,-0.500000 22.000000,-0.500000 C 41.600000,-0.078906 39.600000,-2.150000 39.500000,3.000000 C 39.500000,4.000000 39.500000,22.000000 39.500000,24.000000 C 39.250000,43.800000 41.150000,38.800000 34.000000,39.500000 C 33.000000,39.500000 15.000000,39.500000 13.000000,39.500000 C -4.000000,38.987500 -0.000000,42.100000 -0.500000,32.000000 C -0.500000,31.000000 -0.500000,13.000000 -0.500000,11.000000 C -0.500000,10.000000 -0.500000,0.000000 1.000000,-0.500000 Z"
       id="path1"
       style="fill:#ffffff;stroke-width:1;stroke-linecap:round;stroke:#ffffff;stroke-opacity:1" />
    <path
       d="M 18.000000 3.500000 C 22.250000,1.100000 33.100000,9.175000 32.500000,10.000000 C 36.000000,13.900000 36.650000,21.800000 33.500000,26.000000 C 33.450000,28.650000 26.000000,34.400000 21.000000,34.500000 C 16.000000,36.100000 6.800000,28.400000 7.000000,27.500000 C 3.256250,19.500000 4.081250,18.100000 6.500000,11.000000 C 6.200000,11.100000 13.900000,3.000000 18.000000,3.500000 Z"
       id="path2"
       style="fill:#000000;stroke-width:1;stroke-linecap:round;stroke:#000000;stroke-opacity:1" />
    <path
       d="M 18.000000 5.500000 C 22.200000,2.700000 33.300000,12.300000 32.000000,13.500000 C 36.300000,19.200000 31.225000,27.000000 28.500000,29.000000 C 23.600000,33.500000 17.700000,33.625000 12.500000,30.000000 C 9.500000,27.775000 3.900000,20.200000 7.500000,15.000000 C 5.900000,12.400000 16.200000,5.200000 18.000000,5.500000 Z"
       id="path3"
       style="fill:#ffff00;stroke-width:1;stroke-linecap:round;stroke:#ffff00;stroke-opacity:1" />
    <path
       d="M 15.000000 11.500000 C 18.850000,11.500000 18.300000,17.300000 14.000000,16.500000 C 10.300000,12.800000 13.800000,12.000000 15.000000,11.500000 Z"
       id="path4"
       style="fill:#000000;stroke-width:1;stroke-linecap:round;stroke:#000000;stroke-opacity:1" />
    <path
       d="M 25.000000 11.500000 C 28.850000,11.500000 28.300000,17.300000 24.000000,16.500000 C 20.300000,12.800000 23.800000,12.000000 25.000000,11.500000 Z"
       id="path5"
       style="fill:#000000;stroke-width:1;stroke-linecap:round;stroke:#000000;stroke-opacity:1" />
    <path
       d="M 13.500000 24.000000 C 17.000000,27.475000 17.600000,26.256250 27.000000,26.500000 C 23.700000,31.200000 9.500000,26.950000 13.500000,24.000000 Z"
       id="path6"
       style="fill:#000000;stroke-width:1;stroke-linecap:round;stroke:#000000;stroke-opacity:1" />
  </g>
</svg>
